<?xml version="1.0" standalone="no"?>
<!DOCTYPE svg PUBLIC "-//W3C//DTD SVG 20010904//EN"
 "http://www.w3.org/TR/2001/REC-SVG-20010904/DTD/svg10.dtd">
<svg version="1.0" xmlns="http://www.w3.org/2000/svg"
 width="700.000000pt" height="700.000000pt" viewBox="0 0 700.000000 700.000000"
 preserveAspectRatio="xMidYMid meet">
<metadata>
Created by potrace 1.11, written by Peter Selinger 2001-2013
</metadata>
<g transform="translate(0.000000,700.000000) scale(0.100000,-0.100000)"
fill="#000000" stroke="none">
<path d="M2018 6249 c-159 -44 -280 -156 -341 -318 l-22 -56 -2 -2341 c-2
-2294 -2 -2343 17 -2412 62 -225 242 -361 484 -367 243 -6 430 120 509 344 20
55 20 93 22 2391 1 2573 5 2392 -59 2518 -54 105 -183 208 -306 243 -72 20
-225 19 -302 -2z"/>
<path d="M3637 5794 c-173 -44 -305 -173 -358 -348 -18 -59 -19 -141 -19
-2166 0 -2008 1 -2108 19 -2165 43 -144 123 -240 257 -309 71 -37 162 -54 268
-50 232 8 406 141 471 359 17 57 18 173 18 2165 l1 2105 -22 70 c-27 88 -69
156 -135 219 -51 48 -134 96 -192 111 -16 5 -37 10 -45 13 -35 10 -219 7 -263
-4z"/>
<path d="M432 5335 c-187 -41 -338 -192 -375 -375 -10 -45 -12 -501 -12 -1927
1 -1676 3 -1873 17 -1919 27 -87 66 -152 128 -214 102 -102 226 -149 386 -145
95 3 223 35 245 61 6 8 17 14 23 14 21 0 113 89 149 143 20 30 46 83 59 118
l23 64 0 1890 c0 1595 -2 1898 -14 1940 -15 52 -64 150 -87 173 -8 7 -19 21
-26 31 -20 27 -105 89 -153 111 -105 48 -244 61 -363 35z"/>
<path d="M5288 4895 c-1 -1 -19 -5 -38 -8 -19 -3 -60 -14 -91 -26 -194 -74
-322 -259 -328 -473 -3 -95 1 -108 110 -413 87 -242 99 -275 132 -360 9 -22
46 -123 82 -225 37 -102 82 -228 102 -280 19 -52 57 -156 83 -230 26 -74 70
-196 98 -270 28 -74 71 -193 97 -265 54 -150 81 -226 100 -275 8 -19 71 -192
140 -385 257 -710 232 -647 281 -722 173 -264 566 -304 786 -81 55 56 118 150
118 176 0 10 4 22 9 27 25 27 36 207 17 287 -3 15 -58 170 -122 345 -64 175
-131 359 -149 408 -34 95 -304 838 -460 1265 -51 140 -141 388 -200 550 -58
162 -110 304 -115 315 -5 11 -36 96 -69 188 -35 96 -76 192 -97 223 -89 133
-244 220 -409 229 -40 2 -75 2 -77 0z"/>
</g>
</svg>
