<?xml version="1.0" standalone="no"?>
<!DOCTYPE svg PUBLIC "-//W3C//DTD SVG 20010904//EN"
 "http://www.w3.org/TR/2001/REC-SVG-20010904/DTD/svg10.dtd">
<svg version="1.0" xmlns="http://www.w3.org/2000/svg"
 width="700.000000pt" height="700.000000pt" viewBox="0 0 700.000000 700.000000"
 preserveAspectRatio="xMidYMid meet">
<metadata>
Created by potrace 1.11, written by Peter Selinger 2001-2013
</metadata>
<g transform="translate(0.000000,700.000000) scale(0.100000,-0.100000)"
fill="#000000" stroke="none">
<path d="M2140 6148 c-117 -36 -222 -122 -273 -225 -23 -44 -28 -61 -42 -133
-7 -34 -7 -4197 0 -4235 20 -118 73 -206 168 -278 97 -74 251 -105 402 -81
175 27 321 168 355 340 13 67 13 4212 -1 4279 -29 152 -162 292 -319 335 -76
22 -217 20 -290 -2z"/>
<path d="M3650 5729 c-177 -29 -314 -155 -361 -329 -17 -61 -18 -186 -18
-1950 -1 -2021 -3 -1938 49 -2046 46 -95 166 -195 267 -223 63 -18 194 -24
258 -12 175 33 310 158 356 331 19 69 19 3787 1 3878 -32 156 -135 273 -293
333 -56 22 -185 31 -259 18z"/>
<path d="M780 5332 c-179 -13 -330 -129 -393 -301 -20 -56 -20 -69 -21 -1741
-1 -927 1 -1708 5 -1737 15 -111 87 -223 185 -288 88 -58 148 -75 284 -76 205
-2 382 117 444 299 20 56 20 95 20 1767 1 1649 0 1712 -18 1764 -74 213 -265
332 -506 313z"/>
<path d="M5125 4919 c-197 -36 -346 -186 -379 -383 -20 -117 -9 -161 150 -598
80 -222 157 -434 171 -473 13 -38 28 -79 33 -90 5 -11 162 -443 350 -960 187
-517 355 -968 371 -1002 109 -220 385 -314 614 -208 188 88 300 309 259 510
-5 27 -174 506 -209 595 -20 51 -109 294 -135 370 -12 36 -26 74 -31 85 -8 19
-284 777 -426 1170 -35 99 -68 189 -73 200 -5 11 -47 126 -94 255 -46 129 -97
260 -113 290 -87 170 -299 274 -488 239z"/>
</g>
</svg>
