<?xml version="1.0" encoding="utf-8"?>
<!-- Generator: Adobe Illustrator 16.0.0, SVG Export Plug-In . SVG Version: 6.00 Build 0)  -->
<!DOCTYPE svg PUBLIC "-//W3C//DTD SVG 1.1//EN" "http://www.w3.org/Graphics/SVG/1.1/DTD/svg11.dtd">
<svg version="1.1" id="Layer_1" xmlns="http://www.w3.org/2000/svg" xmlns:xlink="http://www.w3.org/1999/xlink" x="0px" y="0px"
	 width="235.455px" height="186.109px" viewBox="0 0 235.455 186.109" enable-background="new 0 0 235.455 186.109"
	 xml:space="preserve">
<path fill-rule="evenodd" clip-rule="evenodd" fill="#0098ED" d="M35,168.996C35,178.064,27.415,185,18.348,185h-1.931
	C7.35,185,0,178.064,0,168.996V47.319C0,38.252,7.35,31,16.417,31h1.931C27.415,31,35,38.252,35,47.319V168.996z"/>
<path fill-rule="evenodd" clip-rule="evenodd" fill="#F1788D" d="M89,168.996C89,178.064,81.494,185,72.427,185h-1.931
	C61.429,185,54,178.064,54,168.996V16.417C54,7.35,61.429,0,70.496,0h1.931C81.494,0,89,7.35,89,16.417V168.996z"/>
<path fill-rule="evenodd" clip-rule="evenodd" fill="#0BC477" d="M143,169.736c0,9.068-7.426,16.264-16.494,16.264h-1.932
	c-9.066,0-16.574-7.195-16.574-16.264V32.607C108,23.541,115.508,16,124.574,16h1.932C135.574,16,143,23.541,143,32.607V169.736z"/>
<path fill-rule="evenodd" clip-rule="evenodd" fill="#F7986C" d="M234.403,162.771c3.281,9.027-1.37,19.001-10.393,22.283l0,0
	c-9.016,3.289-18.997-1.369-22.283-10.385L163.417,69.409c-3.282-9.027,1.369-19.001,10.393-22.287l0,0
	c9.016-3.286,19.005,1.37,22.282,10.389L234.403,162.771z"/>
</svg>
