<?xml version="1.0" encoding="utf-8"?>
<!-- Generator: Adobe Illustrator 16.0.0, SVG Export Plug-In . SVG Version: 6.00 Build 0)  -->
<!DOCTYPE svg PUBLIC "-//W3C//DTD SVG 1.1//EN" "http://www.w3.org/Graphics/SVG/1.1/DTD/svg11.dtd">
<svg version="1.1" id="Layer_1" xmlns="http://www.w3.org/2000/svg" xmlns:xlink="http://www.w3.org/1999/xlink" x="0px" y="0px"
	 width="60.95px" height="48.182px" viewBox="0 0 60.95 48.182" enable-background="new 0 0 60.95 48.182" xml:space="preserve">
<path fill-rule="evenodd" clip-rule="evenodd" fill="#54A4BE" d="M9,43.75C9,46.098,7.097,48,4.75,48h-0.5
	C1.903,48,0,46.098,0,43.75v-31.5C0,9.902,1.903,8,4.25,8h0.5C7.097,8,9,9.902,9,12.25V43.75z"/>
<path fill-rule="evenodd" clip-rule="evenodd" fill="#8897DE" d="M23,43.75c0,2.348-1.903,4.25-4.25,4.25h-0.5
	C15.903,48,14,46.098,14,43.75V4.25C14,1.903,15.903,0,18.25,0h0.5C21.097,0,23,1.903,23,4.25V43.75z"/>
<path fill-rule="evenodd" clip-rule="evenodd" fill="#FFD36B" d="M37,43.75c0,2.348-1.902,4.25-4.25,4.25h-0.5
	C29.903,48,28,46.098,28,43.75V8.25C28,5.903,29.903,4,32.25,4h0.5C35.098,4,37,5.903,37,8.25V43.75z"/>
<path fill-rule="evenodd" clip-rule="evenodd" fill="#FF826B" d="M60.678,42.14c0.85,2.337-0.354,4.919-2.69,5.769l0,0
	c-2.334,0.852-4.918-0.354-5.769-2.688l-9.918-27.25c-0.85-2.337,0.354-4.919,2.69-5.77l0,0c2.334-0.851,4.92,0.354,5.769,2.689
	L60.678,42.14z"/>
</svg>
